# xmcd CD database file
#
# Track frame offsets:
#	150
#	7388
#	26700
#	37463
#	50777
#	63108
#	76427
#	88704
#	98878
#	111783
#	119487
#	134047
#	151132
#	164234
#	176701
#
# Disc length: 2586 seconds
#
# Revision: 1
# Processed by: cddbd v1.5.2PL0 Copyright (c) Steve Scherf et al.
# Submitted via: CDex 1.70beta2
#
DISCID=df0a180f
DTITLE=Jiří Suchý - Blues pro tebe CD2 - Purpura a jiné vánoční
DYEAR=1997
DGENRE=Undefined
TTITLE0=Zpíváme.zpíváme
TTITLE1=Vánoční pohlednice
TTITLE2=Dárek nevšední
TTITLE3=Sněhová vločka
TTITLE4=Sedm dárků
TTITLE5=Nový nájemník
TTITLE6=Rybí polévka
TTITLE7=Já bych ráda do Betléma
TTITLE8=Stříbrná tramvaj
TTITLE9=Jazzová koleda
TTITLE10=Sníh ve vlasech
TTITLE11=Kouzlo detektivek
TTITLE12=Zas narodil se Kristus pán
TTITLE13=Končí divadlo
TTITLE14=Purpura
EXTD=YEAR: 1997
EXTT0=
EXTT1=
EXTT2=
EXTT3=
EXTT4=
EXTT5=
EXTT6=
EXTT7=
EXTT8=
EXTT9=
EXTT10=
EXTT11=
EXTT12=
EXTT13=
EXTT14=
PLAYORDER=
